<?xml version="1.0" encoding="iso-8859-1"?>
<!-- Generator: Adobe Illustrator 19.0.0, SVG Export Plug-In . SVG Version: 6.00 Build 0)  -->
<svg version="1.1" id="Capa_1" xmlns="http://www.w3.org/2000/svg" xmlns:xlink="http://www.w3.org/1999/xlink" x="0px" y="0px"
	 viewBox="0 0 512 512" style="enable-background:new 0 0 512 512;" xml:space="preserve">
<path style="fill:white;" d="M256,0v398.68c22.757,0,41.207-18.451,41.207-41.207V41.207C297.207,18.451,278.757,0,256,0z"/>
<path style="fill:white;" d="M256,0c5.687,0,10.302,18.451,10.302,41.207v316.266c0,22.757-4.615,41.207-10.302,41.207
	c-22.757,0-41.207-18.451-41.207-41.207V41.207C214.793,18.451,233.243,0,256,0z"/>
<path style="fill:white;" d="M256,429.586V512c22.757,0,41.207-18.451,41.207-41.207C297.207,448.036,278.757,429.586,256,429.586
	z"/>
<path style="fill:white;" d="M256,429.586c5.687,0,10.302,18.451,10.302,41.207c0,22.757-4.615,41.207-10.302,41.207
	c-22.757,0-41.207-18.451-41.207-41.207C214.793,448.036,233.243,429.586,256,429.586z"/>
<g>
</g>
<g>
</g>
<g>
</g>
<g>
</g>
<g>
</g>
<g>
</g>
<g>
</g>
<g>
</g>
<g>
</g>
<g>
</g>
<g>
</g>
<g>
</g>
<g>
</g>
<g>
</g>
<g>
</g>
</svg>
